<svg xmlns="http://www.w3.org/2000/svg" xmlns:xlink="http://www.w3.org/1999/xlink" width="500" zoomAndPan="magnify" viewBox="0 0 375 374.999991" height="500" preserveAspectRatio="xMidYMid meet" version="1.0"><defs><g/><clipPath id="id1"><path d="M 98 190 L 128 190 L 128 236 L 98 236 Z M 98 190 " clip-rule="nonzero"/></clipPath><clipPath id="id2"><path d="M 84.410156 199.738281 L 112.925781 181.6875 L 141.40625 226.675781 L 112.890625 244.730469 Z M 84.410156 199.738281 " clip-rule="nonzero"/></clipPath><clipPath id="id3"><path d="M 84.410156 199.738281 L 112.925781 181.6875 L 141.40625 226.675781 L 112.890625 244.730469 Z M 84.410156 199.738281 " clip-rule="nonzero"/></clipPath><clipPath id="id4"><path d="M 164 219 L 204 219 L 204 282 L 164 282 Z M 164 219 " clip-rule="nonzero"/></clipPath><clipPath id="id5"><path d="M 144.886719 231.917969 L 184.316406 207.273438 L 223.273438 269.601562 L 183.839844 294.246094 Z M 144.886719 231.917969 " clip-rule="nonzero"/></clipPath><clipPath id="id6"><path d="M 144.886719 231.917969 L 184.316406 207.273438 L 223.273438 269.601562 L 183.839844 294.246094 Z M 144.886719 231.917969 " clip-rule="nonzero"/></clipPath><clipPath id="id7"><path d="M 98 201 L 127 201 L 127 247 L 98 247 Z M 98 201 " clip-rule="nonzero"/></clipPath><clipPath id="id8"><path d="M 83.914062 210.085938 L 112.429688 192.03125 L 140.914062 237.023438 L 112.398438 255.074219 Z M 83.914062 210.085938 " clip-rule="nonzero"/></clipPath><clipPath id="id9"><path d="M 83.914062 210.085938 L 112.429688 192.03125 L 140.914062 237.023438 L 112.398438 255.074219 Z M 83.914062 210.085938 " clip-rule="nonzero"/></clipPath></defs><g fill="#ffbd59" fill-opacity="1"><g transform="translate(146.771596, 344.454731)"><g><path d="M 118.152344 -39.484375 C 121.101562 -39.484375 122.277344 -41.839844 123.164062 -43.019531 L 156.457031 -109.019531 L 156.457031 -5.304688 C 156.457031 -1.769531 159.402344 0 161.761719 0 L 189.164062 0 C 191.519531 0 194.46875 -1.769531 194.46875 -5.304688 L 194.46875 -180.324219 C 194.46875 -183.859375 191.519531 -185.628906 189.164062 -185.628906 L 161.464844 -185.628906 C 159.109375 -185.628906 156.457031 -183.566406 154.984375 -180.324219 L 106.367188 -83.679688 L 57.75 -180.324219 C 56.277344 -183.566406 53.625 -185.628906 51.269531 -185.628906 L 23.570312 -185.628906 C 21.214844 -185.628906 18.269531 -183.859375 18.269531 -180.324219 L 18.269531 -5.304688 C 18.269531 -1.769531 21.214844 0 23.570312 0 L 50.972656 0 C 53.332031 0 56.277344 -1.769531 56.277344 -5.304688 L 56.277344 -109.019531 L 89.574219 -43.019531 C 90.457031 -41.839844 91.636719 -39.484375 94.582031 -39.484375 Z M 118.152344 -39.484375 "/></g></g></g><g fill="#ffbd59" fill-opacity="1"><g transform="translate(15.490706, 313.417586)"><g><path d="M 83.230469 0.289062 L 111.359375 0.289062 L 111.359375 -225.324219 L 185.308594 -225.324219 L 185.308594 -253.457031 L 8.699219 -253.457031 L 8.699219 -225.324219 L 83.230469 -225.324219 Z M 83.230469 0.289062 "/></g></g></g><g clip-path="url(#id1)"><g clip-path="url(#id2)"><g clip-path="url(#id3)"><path fill="#000000" d="M 98.667969 190.710938 L 98.660156 222.226562 L 127.148438 235.703125 L 127.15625 204.1875 Z M 98.667969 190.710938 " fill-opacity="1" fill-rule="nonzero"/></g></g></g><g clip-path="url(#id4)"><g clip-path="url(#id5)"><g clip-path="url(#id6)"><path fill="#000000" d="M 164.601562 219.597656 L 164.378906 263.074219 L 203.554688 281.921875 L 203.78125 238.445312 Z M 164.601562 219.597656 " fill-opacity="1" fill-rule="nonzero"/></g></g></g><g clip-path="url(#id7)"><g clip-path="url(#id8)"><g clip-path="url(#id9)"><path fill="#000000" d="M 98.171875 201.058594 L 98.167969 232.574219 L 126.65625 246.050781 L 126.664062 214.535156 Z M 98.171875 201.058594 " fill-opacity="1" fill-rule="nonzero"/></g></g></g></svg>