<svg xmlns="http://www.w3.org/2000/svg" xmlns:xlink="http://www.w3.org/1999/xlink" width="500" zoomAndPan="magnify" viewBox="0 0 375 374.999991" height="500" preserveAspectRatio="xMidYMid meet" version="1.0"><defs><g/><clipPath id="id1"><path d="M 169 223 L 207 223 L 207 282 L 169 282 Z M 169 223 " clip-rule="nonzero"/></clipPath><clipPath id="id2"><path d="M 151.566406 234.894531 L 188.457031 211.839844 L 225.027344 270.351562 L 188.136719 293.40625 Z M 151.566406 234.894531 " clip-rule="nonzero"/></clipPath><clipPath id="id3"><path d="M 151.566406 234.894531 L 188.457031 211.839844 L 225.027344 270.351562 L 188.136719 293.40625 Z M 151.566406 234.894531 " clip-rule="nonzero"/></clipPath><clipPath id="id4"><path d="M 71 174 L 124 174 L 124 258 L 71 258 Z M 71 174 " clip-rule="nonzero"/></clipPath><clipPath id="id5"><path d="M 45.613281 190.886719 L 97.765625 158.292969 L 149.835938 241.609375 L 97.683594 274.203125 Z M 45.613281 190.886719 " clip-rule="nonzero"/></clipPath><clipPath id="id6"><path d="M 45.613281 190.886719 L 97.765625 158.292969 L 149.835938 241.609375 L 97.683594 274.203125 Z M 45.613281 190.886719 " clip-rule="nonzero"/></clipPath><clipPath id="id7"><path d="M 169 230 L 207 230 L 207 289 L 169 289 Z M 169 230 " clip-rule="nonzero"/></clipPath><clipPath id="id8"><path d="M 151.566406 241.644531 L 188.457031 218.589844 L 225.027344 277.101562 L 188.136719 300.15625 Z M 151.566406 241.644531 " clip-rule="nonzero"/></clipPath><clipPath id="id9"><path d="M 151.566406 241.644531 L 188.457031 218.589844 L 225.027344 277.101562 L 188.136719 300.15625 Z M 151.566406 241.644531 " clip-rule="nonzero"/></clipPath><clipPath id="id10"><path d="M 321 288 L 360 288 L 360 348 L 321 348 Z M 321 288 " clip-rule="nonzero"/></clipPath><clipPath id="id11"><path d="M 303.136719 299.980469 L 340.660156 276.527344 L 377.628906 335.675781 L 340.105469 359.128906 Z M 303.136719 299.980469 " clip-rule="nonzero"/></clipPath><clipPath id="id12"><path d="M 303.136719 299.980469 L 340.660156 276.527344 L 377.628906 335.675781 L 340.105469 359.128906 Z M 303.136719 299.980469 " clip-rule="nonzero"/></clipPath></defs><g fill="#ffbd59" fill-opacity="1"><g transform="translate(153.30789, 312.148685)"><g><path d="M 166.320312 -170.878906 L 110.730469 -76.324219 L 55.59375 -170.878906 L 17.316406 -170.878906 L 17.316406 0 L 52.859375 0 L 52.859375 -114.601562 L 110.730469 -13.214844 L 169.054688 -114.375 L 169.054688 0 L 204.371094 0 L 204.371094 -170.878906 Z M 166.320312 -170.878906 "/></g></g></g><g fill="#ffbd59" fill-opacity="1"><g transform="translate(8.029626, 277.076162)"><g><path d="M 2.65625 -219.1875 C 2.65625 -225.375 3.976562 -230.726562 6.625 -235.25 C 9.269531 -239.78125 13.132812 -242.046875 18.21875 -242.046875 L 161.25 -242.046875 C 166.320312 -242.046875 170.179688 -239.78125 172.828125 -235.25 C 175.484375 -230.726562 176.8125 -225.375 176.8125 -219.1875 C 176.8125 -212.570312 175.429688 -207 172.671875 -202.46875 C 169.910156 -197.945312 166.101562 -195.6875 161.25 -195.6875 L 115.5625 -195.6875 L 115.5625 -15.890625 C 115.5625 -10.816406 113.019531 -6.898438 107.9375 -4.140625 C 102.863281 -1.378906 96.796875 0 89.734375 0 C 82.671875 0 76.597656 -1.378906 71.515625 -4.140625 C 66.441406 -6.898438 63.90625 -10.816406 63.90625 -15.890625 L 63.90625 -195.6875 L 18.21875 -195.6875 C 13.351562 -195.6875 9.539062 -197.945312 6.78125 -202.46875 C 4.03125 -207 2.65625 -212.570312 2.65625 -219.1875 Z M 2.65625 -219.1875 "/></g></g></g><g clip-path="url(#id1)"><g clip-path="url(#id2)"><g clip-path="url(#id3)"><path fill="#000000" d="M 170.011719 223.367188 L 169.867188 264.144531 L 206.582031 281.878906 L 206.726562 241.105469 Z M 170.011719 223.367188 " fill-opacity="1" fill-rule="nonzero"/></g></g></g><g clip-path="url(#id4)"><g clip-path="url(#id5)"><g clip-path="url(#id6)"><path fill="#000000" d="M 71.6875 174.589844 L 71.667969 232.535156 L 123.761719 257.90625 L 123.78125 199.964844 Z M 71.6875 174.589844 " fill-opacity="1" fill-rule="nonzero"/></g></g></g><g clip-path="url(#id7)"><g clip-path="url(#id8)"><g clip-path="url(#id9)"><path fill="#000000" d="M 170.011719 230.117188 L 169.867188 270.894531 L 206.582031 288.628906 L 206.726562 247.855469 Z M 170.011719 230.117188 " fill-opacity="1" fill-rule="nonzero"/></g></g></g><g clip-path="url(#id10)"><g clip-path="url(#id11)"><g clip-path="url(#id12)"><path fill="#000000" d="M 321.898438 288.253906 L 321.636719 329.542969 L 358.867188 347.402344 L 359.128906 306.113281 Z M 321.898438 288.253906 " fill-opacity="1" fill-rule="nonzero"/></g></g></g></svg>